<svg version="1.1" id="Layer_1" xmlns="http://www.w3.org/2000/svg" xmlns:xlink="http://www.w3.org/1999/xlink" x="0px" y="0px" viewBox="0 0 64 64" style="enable-background:new 0 0 64 64;" xml:space="preserve"> <style type="text/css">
	.st0{fill:url(#SVGID_1_);}
	.st1{fill:url(#SVGID_2_);}
	.st2{fill:url(#SVGID_3_);}
	.st3{fill:url(#SVGID_4_);}
	.st4{fill:url(#SVGID_5_);}
	.st5{fill:url(#SVGID_6_);}
	.st6{fill:url(#SVGID_7_);}
</style> <linearGradient id="SVGID_1_" gradientUnits="userSpaceOnUse" x1="10" y1="63.5567" x2="10" y2="0.7165" gradientTransform="matrix(1 0 0 -1 0 63.89)"> <stop offset="0" style="stop-color: rgb(0, 63, 209);" id="id_150"></stop> <stop offset="1" style="stop-color: rgb(0, 63, 209);" id="id_151"></stop> </linearGradient> <polygon class="st0" points="9,24 9,26 7,26 7,28 9,28 9,30 11,30 11,28 13,28 13,26 11,26 11,24 " id="id_143"></polygon> <linearGradient id="SVGID_2_" gradientUnits="userSpaceOnUse" x1="11" y1="63.5567" x2="11" y2="0.7165" gradientTransform="matrix(1 0 0 -1 0 63.89)"> <stop offset="0" style="stop-color: rgb(0, 63, 209);" id="id_152"></stop> <stop offset="1" style="stop-color: rgb(0, 63, 209);" id="id_153"></stop> </linearGradient> <polygon class="st1" points="12,41 12,38 15,38 15,36 12,36 12,33 10,33 10,36 7,36 7,38 10,38 10,41 " id="id_144"></polygon> <linearGradient id="SVGID_3_" gradientUnits="userSpaceOnUse" x1="51" y1="63.5567" x2="51" y2="0.7165" gradientTransform="matrix(1 0 0 -1 0 63.89)"> <stop offset="0" style="stop-color: rgb(0, 63, 209);" id="id_154"></stop> <stop offset="1" style="stop-color: rgb(0, 63, 209);" id="id_155"></stop> </linearGradient> <polygon class="st2" points="50,3 50,5 48,5 48,7 50,7 50,9 52,9 52,7 54,7 54,5 52,5 52,3 " id="id_145"></polygon> <linearGradient id="SVGID_4_" gradientUnits="userSpaceOnUse" x1="32" y1="63.5567" x2="32" y2="0.7165" gradientTransform="matrix(1 0 0 -1 0 63.89)"> <stop offset="0" style="stop-color: rgb(0, 63, 209);" id="id_156"></stop> <stop offset="1" style="stop-color: rgb(0, 63, 209);" id="id_157"></stop> </linearGradient> <path class="st3" d="M33,13h-2v2c-1.7,0-3,1.3-3,3s1.3,3,3,3h2c0.6,0,1,0.4,1,1s-0.4,1-1,1h-5v2h3v2h2v-2c1.7,0,3-1.3,3-3
	s-1.3-3-3-3h-2c-0.6,0-1-0.4-1-1s0.4-1,1-1h5v-2h-3V13z" id="id_146"></path> <linearGradient id="SVGID_5_" gradientUnits="userSpaceOnUse" x1="32" y1="63.5567" x2="32" y2="0.7165" gradientTransform="matrix(1 0 0 -1 0 63.89)"> <stop offset="0" style="stop-color: rgb(0, 63, 209);" id="id_158"></stop> <stop offset="1" style="stop-color: rgb(0, 63, 209);" id="id_159"></stop> </linearGradient> <path class="st4" d="M46.6,9c-0.8-1-2-1.6-3.2-1.8c-0.7-0.1-1.3-0.4-1.9-0.7c-0.5-0.5-0.9-1-1.2-1.6c-0.5-1.2-1.5-2.1-2.7-2.7
	c-1.2-0.3-2.5-0.1-3.6,0.5c-0.6,0.3-1.3,0.5-2,0.6c-0.7-0.1-1.4-0.3-2-0.6c-1.1-0.6-2.4-0.8-3.6-0.5c-1.2,0.6-2.1,1.5-2.7,2.7
	C23.4,5.4,23,6,22.5,6.5c-0.6,0.3-1.2,0.6-1.9,0.7C19.4,7.4,18.3,8,17.4,9c-0.6,1.1-0.8,2.4-0.6,3.7c0.1,0.7,0,1.4-0.1,2.1
	c-0.3,0.6-0.6,1.2-1.1,1.7c-0.9,0.9-1.5,2.2-1.6,3.5c0.1,1.3,0.7,2.5,1.6,3.5c0.4,0.5,0.8,1.1,1.1,1.7c0.1,0.7,0.2,1.4,0.1,2.1
	c-0.2,1.3,0,2.6,0.6,3.7c0.8,1,2,1.6,3.2,1.8c0.7,0.1,1.3,0.4,1.9,0.7c0.2,0.1,0.3,0.3,0.4,0.4l-7.4,25.4l5.1-1.3l3.8,3.8L31,40.3
	L29,39.7l-5.5,18.4l-2.2-2.2l-2.9,0.7l6-20.5c0.5,0.8,1.2,1.4,2,1.7c1.2,0.3,2.5,0.1,3.6-0.5c0.6-0.3,1.3-0.5,2-0.6
	c0.1,0,0.1,0,0.2,0l7.3,25.1l3.8-3.8l5.1,1.3L41,34c0.1-0.2,0.3-0.3,0.4-0.4c0.6-0.3,1.2-0.6,1.9-0.7c1.3-0.2,2.4-0.8,3.2-1.8
	c0.6-1.1,0.8-2.4,0.6-3.7c-0.1-0.7,0-1.4,0.1-2.1c0.3-0.6,0.6-1.2,1.1-1.7c0.9-0.9,1.5-2.2,1.6-3.5c-0.1-1.3-0.7-2.5-1.6-3.5
	c-0.4-0.5-0.8-1.1-1.1-1.7c-0.1-0.7-0.2-1.4-0.1-2.1C47.4,11.4,47.2,10.1,46.6,9z M42.7,55.9l-2.2,2.2l-6-20.6
	c0.7,0.3,1.4,0.5,2.1,0.5c0.3,0,0.7-0.1,1-0.2c0.8-0.3,1.5-0.9,2-1.7l6,20.5L42.7,55.9z M48,20c-0.2,0.9-0.6,1.6-1.2,2.2
	c-0.6,0.7-1.1,1.5-1.4,2.3c-0.2,0.9-0.3,1.9-0.2,2.8c0.1,0.8,0,1.7-0.3,2.5c-0.6,0.5-1.3,0.9-2.1,1c-0.9,0.2-1.8,0.6-2.5,1.1
	c-0.7,0.6-1.3,1.3-1.7,2.2c-0.5,0.8-1,1.6-1.6,1.8c-0.8,0.1-1.5-0.1-2.2-0.5c-0.9-0.4-1.8-0.6-2.7-0.7c-0.9,0.1-1.9,0.3-2.7,0.7
	c-0.7,0.4-1.4,0.5-2.2,0.5c-0.6-0.2-1.1-1-1.6-1.8c-0.4-0.8-1-1.5-1.7-2.2c-0.8-0.5-1.6-0.9-2.5-1.1c-0.8-0.1-1.6-0.5-2.1-1
	c-0.3-0.8-0.4-1.6-0.3-2.5c0.1-0.9,0-1.9-0.2-2.8c-0.3-0.9-0.8-1.6-1.4-2.3c-0.6-0.6-1-1.4-1.2-2.2c0.2-0.9,0.6-1.6,1.2-2.2
	c0.6-0.7,1.1-1.5,1.4-2.3c0.2-0.9,0.3-1.9,0.2-2.8c-0.1-0.8,0-1.7,0.3-2.5c0.6-0.5,1.3-0.9,2.1-1c0.9-0.2,1.8-0.6,2.5-1.1
	c0.7-0.6,1.3-1.3,1.7-2.2c0.5-0.8,1-1.6,1.6-1.8c0.8-0.1,1.5,0.1,2.2,0.5c0.9,0.4,1.8,0.6,2.7,0.7c0.9-0.1,1.9-0.3,2.7-0.7
	c0.7-0.4,1.4-0.5,2.2-0.5c0.6,0.2,1.1,1,1.6,1.8c0.4,0.8,1,1.5,1.7,2.2c0.8,0.5,1.6,0.9,2.5,1.1c0.8,0.1,1.6,0.5,2.1,1
	c0.3,0.8,0.4,1.6,0.3,2.5c-0.1,0.9,0,1.9,0.2,2.8c0.3,0.9,0.8,1.6,1.4,2.3C47.4,18.4,47.8,19.1,48,20z" id="id_147"></path> <linearGradient id="SVGID_6_" gradientUnits="userSpaceOnUse" x1="56" y1="63.5567" x2="56" y2="0.7165" gradientTransform="matrix(1 0 0 -1 0 63.89)"> <stop offset="0" style="stop-color: rgb(0, 63, 209);" id="id_160"></stop> <stop offset="1" style="stop-color: rgb(0, 63, 209);" id="id_161"></stop> </linearGradient> <polygon class="st5" points="55,11 55,14 52,14 52,16 55,16 55,19 57,19 57,16 60,16 60,14 57,14 57,11 " id="id_148"></polygon> <linearGradient id="SVGID_7_" gradientUnits="userSpaceOnUse" x1="32" y1="63.5567" x2="32" y2="0.7165" gradientTransform="matrix(1 0 0 -1 0 63.89)"> <stop offset="0" style="stop-color: rgb(0, 63, 209);" id="id_162"></stop> <stop offset="1" style="stop-color: rgb(0, 63, 209);" id="id_163"></stop> </linearGradient> <path class="st6" d="M32,9c-6.1,0-11,4.9-11,11s4.9,11,11,11s11-4.9,11-11C43,13.9,38.1,9,32,9z M32,29c-5,0-9-4-9-9s4-9,9-9
	s9,4,9,9C41,25,37,29,32,29z" id="id_149"></path> </svg>